#!OML:ASF E:\emotionWalksFemale\Project 1\Capture day 1\Session 1\Female1.ASF
:FULLY-SPECIFIED
:DEGREES
203
root 4.82178 15.3229 22.0692 -172.907 -12.7139 -534.108
lowerback 13.0099 2.58658 -2.62067
upperback -4.12656 3.03345 0.313971
thorax -12.0119 1.63885 1.11793
lowerneck -2.83967 -9.55522 -12.5609
upperneck -4.91689 -12.5786 15.9371
head 0.885218 -6.38376 6.45294
rclavicle 3.11098e-014 1.98785e-014
rhumerus -40.4782 21.5828 -99.8641
rradius 42.7958
rwrist 16.3997
rhand -1.61245 -61.219
rfingers 7.12502
rthumb 24.0451 -449.733
lclavicle 3.11098e-014 1.98785e-014
lhumerus -37.2546 -1.29384 87.1982
lradius 26.3023
lwrist -43.971
lhand -2.96169 -39.6275
lfingers 7.12502
lthumb 22.7507 -10.9489
rfemur -22.9631 -7.16576 32.4082
rtibia 37.5339
rfoot -21.4993 -17.7862
rtoes -14.1465
lfemur -24.3877 -12.9711 -15.9151
ltibia 37.0075
lfoot -25.3196 7.25711
ltoes -54.9505
204
root 4.76531 15.3901 22.0329 -172.968 -12.2763 -534.271
lowerback 12.3571 2.65078 -2.51085
upperback -4.21295 3.14015 0.209002
thorax -11.7099 1.67568 0.942686
lowerneck -2.84664 -9.4333 -12.4071
upperneck -4.31637 -12.4344 15.5153
head 0.99822 -6.28656 6.29407
rclavicle -1.88845e-014 -2.14687e-014
rhumerus -41.365 21.7361 -100.264
rradius 42.6905
rwrist 16.8097
rhand -0.77372 -60.8457
rfingers 7.12502
rthumb 24.8491 -449.251
lclavicle -1.88845e-014 -2.14687e-014
lhumerus -38.1935 -1.92778 87.9439
lradius 26.6634
lwrist -43.6282
lhand -3.82677 -39.5496
lfingers 7.12502
lthumb 21.9203 -10.7714
rfemur -21.8019 -6.39267 32.4151
rtibia 35.8095
rfoot -21.3739 -18.4554
rtoes -15.1747
lfemur -23.0894 -12.81 -16.319
ltibia 35.369
lfoot -25.2956 6.73786
ltoes -54.0954
205
root 4.70815 15.4499 22.009 -172.921 -12.3643 -534.538
lowerback 11.8963 2.48121 -2.35795
upperback -4.35501 2.93843 0.169069
thorax -11.5738 1.56615 0.874953
lowerneck -2.92107 -9.27644 -12.526
upperneck -3.71225 -12.2291 15.2062
head 1.14166 -6.15566 6.21308
rclavicle 8.15017e-015 -1.59028e-015
rhumerus -42.347 22.4173 -100.628
rradius 42.7934
rwrist 17.1468
rhand 0.236895 -60.7647
rfingers 7.12502
rthumb 25.8173 -449.033
lclavicle 8.15017e-015 -1.59028e-015
lhumerus -39.1393 -2.36151 88.7574
lradius 27.0975
lwrist -42.8581
lhand -3.04927 -38.5611
lfingers 7.12502
lthumb 22.6667 -9.87219
rfemur -20.8832 -5.89196 32.3446
rtibia 34.2358
rfoot -21.4169 -19.2521
rtoes -15.1516
lfemur -22.0628 -13.284 -16.736
ltibia 33.7371
lfoot -25.0922 6.8169
ltoes -54.0773
206
root 4.65489 15.4994 21.9891 -172.895 -12.5456 -534.832
lowerback 11.5978 2.31169 -2.23098
upperback -4.51935 2.7228 0.0981388
thorax -11.5604 1.44995 0.782239
lowerneck -3.02683 -9.14248 -12.4442
upperneck -3.06775 -12.0615 14.8259
head 1.29054 -6.0467 6.07478
rclavicle 1.1281e-014 -6.36111e-015
rhumerus -43.2674 23.0744 -100.983
rradius 42.8274
rwrist 17.8818
rhand 1.13191 -60.4981
rfingers 7.12502
rthumb 26.6741 -448.639
lclavicle 1.1281e-014 -6.36111e-015
lhumerus -40.0472 -2.6696 89.4093
lradius 27.4721
lwrist -42.3409
lhand -0.279458 -36.6412
lfingers 7.12502
lthumb 25.3227 -8.30223
rfemur -20.0577 -5.45093 32.2512
rtibia 32.8642
rfoot -21.3837 -20.0192
rtoes -14.5672
lfemur -21.0449 -13.9906 -17.1974
ltibia 32.1026
lfoot -24.8019 8.05731
ltoes -55.7646
207
root 4.60273 15.548 21.9679 -172.866 -12.7702 -535.243
lowerback 11.2525 2.14506 -2.23599
upperback -4.62433 2.48469 -0.0312521
thorax -11.4561 1.32937 0.706741
lowerneck -3.29863 -9.02905 -12.1325
upperneck -2.36613 -11.9224 14.4065
head 1.47188 -5.95165 5.87835
rclavicle -6.36608e-014 -3.33958e-014
rhumerus -44.1153 23.5388 -101.279
rradius 42.7985
rwrist 19.1094
rhand 1.41851 -59.7555
rfingers 7.12502
rthumb 26.9483 -447.854
lclavicle -6.36608e-014 -3.33958e-014
lhumerus -40.913 -3.12592 89.9817
lradius 27.8558
lwrist -42.2394
lhand -1.49599 -37.8694
lfingers 7.12502
lthumb 24.1567 -9.37044
rfemur -19.3455 -5.24226 32.0446
rtibia 31.8086
rfoot -21.1361 -20.674
rtoes -14.284
lfemur -19.975 -15.0011 -17.7921
ltibia 30.5385
lfoot -24.2551 9.84984
ltoes -57.2108
208
root 4.55077 15.5907 21.9532 -172.748 -13.1105 -535.698
lowerback 10.849 1.90961 -2.258
upperback -4.69553 2.15361 -0.156472
thorax -11.2773 1.16513 0.665537
lowerneck -3.59109 -8.9089 -11.9581
upperneck -1.80512 -11.7694 14.1889
head 1.63772 -5.85426 5.76902
rclavicle 3.3048e-014 -4.77083e-015
rhumerus -44.9021 24.0086 -101.554
rradius 42.7916
rwrist 19.7755
rhand 0.588397 -58.9888
rfingers 7.12502
rthumb 26.1538 -447.207
lclavicle 3.3048e-014 -4.77083e-015
lhumerus -41.6229 -3.44069 90.4295
lradius 28.196
lwrist -42.1831
lhand -0.879681 -37.9957
lfingers 7.12502
lthumb 24.7475 -9.57654
rfemur -18.8124 -5.12551 31.7823
rtibia 30.9676
rfoot -21.0854 -21.0116
rtoes -12.4385
lfemur -19.0965 -16.2101 -18.3925
ltibia 29.1305
lfoot -23.597 11.8047
ltoes -57.6223
209
root 4.5042 15.6189 21.9478 -172.49 -13.2775 -536.024
lowerback 10.4059 1.7374 -2.27102
upperback -4.82035 1.91071 -0.248936
thorax -11.1401 1.04273 0.633942
lowerneck -3.77899 -8.80792 -11.9188
upperneck -1.3951 -11.6494 14.1987
head 1.77109 -5.78089 5.75644
rclavicle -2.28602e-015 -8.74653e-015
rhumerus -45.3139 24.0574 -101.444
rradius 43.0498
rwrist 18.3594
rhand 0.302857 -58.7236
rfingers 7.12502
rthumb 25.8804 -446.982
lclavicle -2.28602e-015 -8.74653e-015
lhumerus -42.2134 -3.7101 90.7507
lradius 28.5123
lwrist -41.8512
lhand 1.5714 -36.7506
lfingers 7.12502
lthumb 27.0946 -8.67487
rfemur -18.575 -4.86273 31.6606
rtibia 30.2357
rfoot -20.7892 -21.2677
rtoes -10.5967
lfemur -18.5537 -17.1992 -18.8018
ltibia 27.9796
lfoot -23.5655 13.6497
ltoes -57.0732
210
root 4.46063 15.6419 21.9414 -172.251 -13.2974 -536.237
lowerback 9.96157 1.64182 -2.36539
upperback -4.94324 1.76833 -0.254184
thorax -11.01 0.977918 0.720164
lowerneck -4.07363 -8.75978 -11.8456
upperneck -0.886695 -11.5953 14.118
head 1.95115 -5.73456 5.69974
rclavicle -6.01324e-015 -5.56597e-015
rhumerus -45.7809 24.1968 -101.272
rradius 43.2313
rwrist 18.0593
rhand 0.299973 -58.3378
rfingers 7.12502
rthumb 25.8777 -446.597
lclavicle -6.01324e-015 -5.56597e-015
lhumerus -42.842 -4.17972 91.1365
lradius 28.96
lwrist -41.0959
lhand 4.52789 -34.8065
lfingers 7.12502
lthumb 29.9196 -7.20473
rfemur -18.4128 -4.49533 31.636
rtibia 29.6231
rfoot -20.2595 -21.6897
rtoes -9.79478
lfemur -18.0482 -17.9533 -19.1356
ltibia 27.158
lfoot -22.5601 18.4943
ltoes -55.3678
211
root 4.41927 15.6611 21.9376 -172.087 -13.3444 -536.337
lowerback 9.57039 1.54819 -2.42298
upperback -5.02011 1.6433 -0.191295
thorax -10.8611 0.922139 0.853597
lowerneck -4.38827 -8.71023 -11.7447
upperneck -0.458679 -11.5276 13.9558
head 2.10238 -5.68245 5.61656
rclavicle -2.28105e-014 -1.11319e-014
rhumerus -46.221 24.6332 -101.162
rradius 43.3521
rwrist 18.0412
rhand 0.652774 -58.1452
rfingers 7.12502
rthumb 26.2155 -446.355
lclavicle -2.28105e-014 -1.11319e-014
lhumerus -43.368 -4.75308 91.5191
lradius 29.4529
lwrist -40.2439
lhand 4.29384 -34.4914
lfingers 7.12502
lthumb 29.6962 -6.84951
rfemur -18.179 -3.95426 31.6924
rtibia 29.0755
rfoot -20.1684 -22.1519
rtoes -8.499
lfemur -17.5945 -18.4628 -19.3792
ltibia 26.6885
lfoot -22.5048 22.822
ltoes -51.6012
212
root 4.38281 15.6618 21.9416 -171.883 -13.4018 -536.352
lowerback 9.19991 1.43716 -2.41903
upperback -5.10201 1.50495 -0.105371
thorax -10.7276 0.856252 0.977715
lowerneck -4.57496 -8.65137 -11.7863
upperneck -0.248643 -11.4437 13.9462
head 2.18551 -5.63041 5.61405
rclavicle -1.12562e-014 1.59028e-015
rhumerus -46.5713 25.2769 -101.098
rradius 43.4
rwrist 17.7156
rhand 0.698837 -57.825
rfingers 7.12502
rthumb 26.2596 -446.028
lclavicle -1.12562e-014 1.59028e-015
lhumerus -43.6381 -5.24992 91.7395
lradius 29.6895
lwrist -39.6642
lhand 4.54807 -34.6512
lfingers 7.12502
lthumb 29.9388 -7.05289
rfemur -17.98 -3.34415 31.825
rtibia 28.4863
rfoot -20.2394 -22.5863
rtoes -7.34097
lfemur -17.4289 -18.7241 -19.4621
ltibia 26.472
lfoot -22.7689 26.9765
ltoes -48.7661
213
root 4.34818 15.6479 21.9469 -171.676 -13.4336 -536.258
lowerback 8.82161 1.27308 -2.40229
upperback -5.18346 1.30662 0.0844065
thorax -10.5884 0.764719 1.21574
lowerneck -4.95873 -8.58214 -11.8671
upperneck 0.200059 -11.3342 13.8445
head 2.36379 -5.55435 5.57876
rclavicle -2.14439e-014 -3.02153e-014
rhumerus -46.8095 26.1225 -100.963
rradius 43.3455
rwrist 17.3989
rhand 0.642971 -57.4422
rfingers 7.12502
rthumb 26.2061 -445.653
lclavicle -2.14439e-014 -3.02153e-014
lhumerus -43.7837 -5.44581 91.81
lradius 29.7164
lwrist -39.2512
lhand 4.66355 -35.2748
lfingers 7.12502
lthumb 30.049 -7.69642
rfemur -17.7737 -2.79914 32.046
rtibia 27.849
rfoot -20.1436 -22.907
rtoes -6.64005
lfemur -17.4432 -18.6454 -19.4034
ltibia 26.382
lfoot -22.6662 29.2522
ltoes -46.3509
214
root 4.31202 15.6371 21.9494 -171.567 -13.4092 -536.16
lowerback 8.56971 1.25661 -2.29949
upperback -5.38275 1.286 0.0610849
thorax -10.6555 0.742682 1.13984
lowerneck -4.86003 -8.53202 -11.3147
upperneck 0.611591 -11.3314 13.5526
head 2.41769 -5.55179 5.39998
rclavicle -5.61567e-015 9.54166e-015
rhumerus -47.0741 26.1153 -100.959
rradius 43.0247
rwrist 17.3652
rhand 0.582729 -57.3335
rfingers 7.12502
rthumb 26.1484 -445.553
lclavicle -5.61567e-015 9.54166e-015
lhumerus -44.1415 -6.26481 91.7867
lradius 29.6544
lwrist -38.8587
lhand 5.11889 -36.0393
lfingers 7.12502
lthumb 30.4834 -8.54068
rfemur -17.3887 -2.20582 32.188
rtibia 27.1639
rfoot -20.046 -23.0004
rtoes -5.48504
lfemur -17.4725 -18.1839 -19.4001
ltibia 26.394
lfoot -22.624 28.2394
ltoes -42.3121
215
root 4.2742 15.628 21.9477 -171.524 -13.3547 -536.157
lowerback 8.35014 1.18415 -2.24954
upperback -5.56394 1.1864 0.081946
thorax -10.7214 0.688203 1.15472
lowerneck -4.63596 -8.40342 -11.0748
upperneck 0.96468 -11.2115 13.3778
head 2.44514 -5.49417 5.32161
rclavicle -4.69629e-015 6.36111e-015
rhumerus -47.5094 26.3981 -101.1
rradius 42.5956
rwrist 17.7994
rhand 0.599414 -57.3022
rfingers 7.12502
rthumb 26.1644 -445.519
lclavicle -4.69629e-015 6.36111e-015
lhumerus -44.3165 -6.83726 91.7971
lradius 29.394
lwrist -38.5584
lhand 5.74055 -36.26
lfingers 7.12502
lthumb 31.0761 -8.87302
rfemur -16.8404 -1.54216 32.1389
rtibia 26.353
rfoot -19.3308 -23.1975
rtoes -6.249
lfemur -17.5139 -17.6429 -19.547
ltibia 26.4386
lfoot -23.0425 23.909
ltoes -36.9354
216
root 4.23693 15.6194 21.9547 -171.245 -12.8447 -535.992
lowerback 7.88982 1.22634 -2.06422
upperback -5.77623 1.26272 0.15098
thorax -10.6816 0.707433 1.11843
lowerneck -4.4236 -8.30277 -10.9093
upperneck 1.24704 -11.1103 13.1467
head 2.45704 -5.44658 5.23703
rclavicle 2.73329e-016 -2.22639e-014
rhumerus -47.9127 27.0108 -101.401
rradius 41.9521
rwrist 19.0508
rhand 0.153271 -57.1926
rfingers 7.12502
rthumb 25.7372 -445.472
lclavicle 2.73329e-016 -2.22639e-014
lhumerus -44.2521 -7.36461 91.8034
lradius 29.0765
lwrist -38.2925
lhand 6.00309 -36.1999
lfingers 7.12502
lthumb 31.3263 -8.86112
rfemur -16.6259 -0.619857 32.1469
rtibia 25.4407
rfoot -18.0265 -23.2125
rtoes -8.07031
lfemur -17.9105 -17.1542 -19.4597
ltibia 26.5291
lfoot -23.1571 23.7363
ltoes -38.6489
217
root 4.20892 15.6071 21.95 -171.489 -13.038 -535.882
lowerback 7.79048 1.04473 -1.94626
upperback -5.75266 1.04647 0.271522
thorax -10.5865 0.599119 1.22025
lowerneck -4.35814 -8.27524 -10.7342
upperneck 1.54346 -11.088 12.8239
head 2.50083 -5.4338 5.11065
rclavicle 6.2406e-014 -7.95139e-016
rhumerus -47.7323 27.1266 -101.297
rradius 41.343
rwrist 19.5384
rhand 0.534847 -57.8527
rfingers 7.12502
rthumb 26.1026 -446.079
lclavicle 6.2406e-014 -7.95139e-016
lhumerus -44.0888 -7.92879 91.7331
lradius 28.8005
lwrist -38.3206
lhand 5.75792 -36.492
lfingers 7.12502
lthumb 31.0926 -9.10821
rfemur -15.7201 0.0185954 32.1676
rtibia 24.4745
rfoot -17.6531 -23.5259
rtoes -7.17395
lfemur -17.6776 -16.9793 -19.4855
ltibia 26.64
lfoot -22.3152 25.3314
ltoes -40.3031
